<?xml version="1.0" encoding="UTF-8"?>
<svg viewBox="0 0 434 96" version="1.1" xmlns="http://www.w3.org/2000/svg" xmlns:xlink="http://www.w3.org/1999/xlink">
  <g stroke="none" stroke-width="1" fill="none" fill-rule="evenodd">
    <g fill="#eae9ed" fill-rule="nonzero">
      <path d="M418.15176,21.4955785 L418.15176,9.17731287 C418.15176,4.17948511 420.612347,1.68057123 425.537354,1.68057123 L433.037928,1.68057123 L433.037928,49.876648 C432.750476,53.8051552 431.769308,57.4807049 430.09059,60.9109625 C428.411871,64.3373873 426.219573,67.2808933 423.506028,69.7453129 C420.792484,72.2097326 417.684172,74.1567391 414.184926,75.5824998 C410.68568,77.0120932 406.937309,77.7249735 402.939814,77.7249735 C398.727687,77.7249735 394.79918,76.9392721 391.158125,75.3678692 C387.517069,73.7964663 384.339769,71.6539926 381.626225,68.9442807 C378.91268,66.2307362 376.78937,63.0342727 375.252461,59.3548903 C373.719385,55.6793406 372.949014,51.7699968 372.949014,47.6306916 C372.949014,43.4147326 373.719385,39.4862254 375.252461,35.8451699 C376.78937,32.2041144 378.91268,29.0268144 381.626225,26.3132699 C384.339769,23.5997253 387.517069,21.4610843 391.158125,19.8858487 C394.79918,18.3144458 398.727687,17.5287444 402.939814,17.5287444 C408.654354,17.5287444 413.721171,18.8510224 418.15176,21.4955785 Z M417.722499,47.6306916 C417.722499,45.5572064 417.327732,43.6485267 416.54203,41.9008201 C415.756329,40.1492808 414.702339,38.5932086 413.383894,37.2402691 C412.061616,35.8834968 410.509376,34.829507 408.723343,34.0782998 C406.937309,33.3270926 405.009466,32.9553216 402.939814,32.9553216 C400.939149,32.9553216 399.049633,33.3270926 397.2636,34.0782998 C395.477566,34.829507 393.906163,35.8834968 392.549391,37.2402691 C391.192619,38.5932086 390.142462,40.1492808 389.391255,41.9008201 C388.640047,43.6485267 388.264444,45.5572064 388.264444,47.6306916 C388.264444,49.6275231 388.659211,51.5170393 389.444912,53.3030728 C390.230614,55.0891064 391.284603,56.6413458 392.603049,57.9636239 C393.925327,59.2859019 395.477566,60.3398917 397.2636,61.1255931 C399.049633,61.9074619 400.939149,62.302229 402.939814,62.302229 C405.009466,62.302229 406.937309,61.9266253 408.723343,61.1792508 C410.509376,60.4280435 412.061616,59.3740538 413.383894,58.0172815 C414.702339,56.6605093 415.756329,55.0891064 416.54203,53.3030728 C417.327732,51.5170393 417.722499,49.6275231 417.722499,47.6306916 Z" />
      <path d="M366.628909,26.3132699 C367.985681,27.6700421 368.556752,29.2951027 368.342121,31.1884515 C368.131323,33.0779677 367.272801,34.595713 365.774219,35.7378546 C363.846376,37.0256384 362.363125,38.7580143 361.328298,40.9349822 C360.293472,43.1119501 359.776059,45.3425757 359.776059,47.6306916 L359.776059,70.3355472 C359.776059,74.9041137 357.238818,77.3685333 352.172002,77.7249735 L344.349482,77.7249735 L344.349482,73.7619721 C340.068367,76.2608859 335.174022,77.5103429 329.677944,77.5103429 C325.465818,77.5103429 321.537311,76.7246414 317.896255,75.1532385 C314.2552,73.5856683 311.0779,71.4431946 308.364355,68.7296501 C305.650811,66.0161056 303.508337,62.8388056 301.936934,59.1977501 C300.365531,55.5528619 299.57983,51.6281873 299.57983,47.416061 C299.57983,43.200102 300.365531,39.2754274 301.936934,35.6343719 C303.508337,31.9894838 305.650811,28.8121837 308.364355,26.0986392 C311.0779,23.3850947 314.2552,21.242621 317.896255,19.6750508 C321.537311,18.1036479 325.465818,17.3179464 329.677944,17.3179464 C338.033209,17.3179464 345.139016,20.2461216 350.991533,26.0986392 C351.137176,26.3132699 351.313479,26.5279005 351.52811,26.7425311 C351.742741,26.9571618 351.957371,27.1717924 352.172002,27.3864231 C353.172334,26.1714603 354.364301,25.0101553 355.7594,23.9025079 C357.150666,22.7986931 358.526602,21.8865129 359.879542,21.1736326 C362.236646,22.4575837 364.486435,24.1707962 366.628909,26.3132699 Z M344.349482,47.416061 C344.349482,45.3425757 343.977711,43.4338961 343.226503,41.6823568 C342.475296,39.9346501 341.425139,38.3824107 340.068367,37.0256384 C338.711595,35.6688662 337.155522,34.6148764 335.407816,33.8675019 C333.660109,33.1162946 331.747597,32.740691 329.677944,32.740691 C327.608292,32.740691 325.680449,33.1162946 323.894415,33.8675019 C322.108382,34.6148764 320.556142,35.6497027 319.233864,36.9719808 C317.915419,38.2904261 316.87676,39.8464983 316.129385,41.6325318 C315.378178,43.4147326 315.002574,45.3425757 315.002574,47.416061 C315.002574,49.4857136 315.378178,51.4135567 316.129385,53.1995902 C316.87676,54.9817911 317.915419,56.5378632 319.233864,57.8563086 C320.556142,59.1785866 322.108382,60.2134129 323.894415,60.9646201 C325.680449,61.7119947 327.608292,62.0875983 329.677944,62.0875983 C331.747597,62.0875983 333.660109,61.7119947 335.407816,60.9646201 C337.155522,60.2134129 338.711595,59.1594232 340.068367,57.8026509 C341.425139,56.4458786 342.475296,54.8744757 343.226503,53.0922749 C343.977711,51.3062414 344.349482,49.4128925 344.349482,47.416061 Z" />
      <path d="M293.688985,47.6306916 C293.688985,51.8389853 292.922447,55.786656 291.385539,59.4660384 C289.852463,63.1415881 287.72532,66.3380515 285.015608,69.0477634 C282.302063,71.7613079 279.1056,73.9037816 275.426217,75.4751845 C271.750668,77.0465874 267.80683,77.8322888 263.590871,77.8322888 C262.092289,77.8322888 260.701022,77.744137 259.413239,77.5640005 C258.129287,77.3876968 256.898994,77.1347393 255.718525,76.8127933 C254.54189,76.49468 253.365254,76.0654187 252.184785,75.5288421 C251.008149,74.9960982 249.739529,74.405864 248.382757,73.7619721 L248.382757,88.3300267 C248.382757,93.3278545 245.92217,95.8267684 240.99333,95.8267684 L233.492756,95.8267684 L233.492756,48.3780662 C233.350947,44.3805705 231.925186,41.0576283 229.211641,38.4169049 C228.78238,37.8458341 228.211309,37.3437517 227.494596,36.9183231 C225.999847,35.7761815 225.141325,34.2584362 224.926694,32.3650874 C224.712063,30.4755712 225.283134,28.8505106 226.639906,27.4937384 C228.78238,25.3512647 231.032169,23.6380522 233.389273,22.3502684 C235.884355,23.6380522 238.134144,25.3512647 240.134808,27.4937384 C240.418427,27.7773574 240.63689,27.9574939 240.7787,28.0264823 C240.99333,27.7428632 241.223292,27.4745749 241.476249,27.2216174 C241.725374,26.9763252 241.98983,26.66971 242.277282,26.3132699 C248.275441,20.4569195 255.381249,17.5287444 263.590871,17.5287444 C267.80683,17.5287444 271.731504,18.3144458 275.376392,19.8858487 C279.017448,21.4610843 282.194748,23.5997253 284.908292,26.3132699 C287.621837,29.0268144 289.764311,32.2041144 291.331881,35.8451699 C292.903284,39.4862254 293.688985,43.4147326 293.688985,47.6306916 Z M278.266241,47.6306916 C278.266241,45.5572064 277.890637,43.6485267 277.13943,41.9008201 C276.392055,40.1492808 275.338065,38.5932086 273.981293,37.2402691 C272.624521,35.8834968 271.072282,34.829507 269.320742,34.0782998 C267.573036,33.3270926 265.664356,32.9553216 263.590871,32.9553216 C261.45223,32.9553216 259.470729,33.346256 257.646368,34.1319575 C255.825841,34.9176589 254.273601,36.0061429 252.98965,37.401242 C251.705699,38.7925085 250.705367,40.4175691 249.988654,42.272591 C249.275773,44.1314457 248.919333,46.1282772 248.919333,48.2707509 C248.988322,50.2714151 249.417583,52.126437 250.203284,53.8396494 C250.988986,55.5528619 252.062139,57.0552763 253.415079,58.3392275 C254.775684,59.6231786 256.32409,60.6235107 258.07563,61.3363911 C259.823336,62.0531041 261.663028,62.4095443 263.590871,62.4095443 C265.664356,62.4095443 267.588366,62.0339407 269.3744,61.2865661 C271.160433,60.5353589 272.712673,59.4813691 274.034951,58.1245969 C275.353396,56.7678246 276.392055,55.1964217 277.13943,53.4142209 C277.890637,51.6281873 278.266241,49.7003442 278.266241,47.6306916 Z" />
      <path d="M191.582291,19.9711031 C197.347895,19.9711031 202.322141,21.1972336 206.476425,23.6562198 C210.640641,26.1116302 213.760835,29.2858104 215.856405,33.2120042 C217.91935,37.1060123 218.95826,41.0784929 218.95826,45.1202797 C218.95826,49.0641182 217.75948,51.7769724 215.292629,53.0610154 C213.163786,54.1592594 210.275674,54.7201757 206.632639,54.766875 L206.131182,54.7700579 L179.295,54.77 L179.331122,55.2888909 C179.499794,57.3676979 179.959342,59.2574717 180.707157,60.966804 L180.900115,61.3903829 L181.105075,61.8064732 C182.279509,64.1056674 183.832347,65.8142292 185.777351,66.9671208 C187.701332,68.1271163 189.850053,68.7075891 192.207019,68.7075891 C193.840236,68.7075891 195.289775,68.5211561 196.599541,68.1404289 C197.911022,67.7782775 199.169099,67.2026521 200.413861,66.3957491 C201.700149,65.5725249 202.869076,64.6942198 203.947304,63.7428574 L204.600023,63.1662653 C205.594314,62.2797011 206.815578,61.1569022 208.314645,59.7524246 C209.26372,58.9424811 210.547103,58.5509606 212.129342,58.5509606 C213.838807,58.5509606 215.28813,59.0453395 216.400772,60.0312339 C217.541047,61.0344801 218.118901,62.4736409 218.118901,64.2224066 C218.118901,65.7045223 217.558103,67.3646982 216.455263,69.281709 C215.347688,71.1429345 213.72472,72.8983486 211.607479,74.5208572 C209.452368,76.2020059 206.785311,77.5750057 203.619586,78.6328467 C200.422395,79.7236998 196.757224,80.2651118 192.636281,80.2651118 C183.197135,80.2651118 175.791405,77.5423438 170.486848,72.0858847 C165.194633,66.6462211 162.562097,59.2939964 162.562097,50.0644498 C162.562097,45.7318641 163.206994,41.6864224 164.494937,37.9687715 C165.782267,34.2528906 167.6881,31.0329309 170.204915,28.3064269 C172.731916,25.6106913 175.830812,23.5430908 179.481872,22.1177044 C183.137297,20.6881861 187.17994,19.9711031 191.582291,19.9711031 Z M191.118535,32.0652024 C187.846274,32.0652024 185.21689,33.1701305 183.133919,35.3998766 C181.243517,37.4393543 179.999455,40.3791861 179.429866,44.2405925 L179.393,44.5 L202.914,44.5 L202.886041,44.2396968 C202.447081,40.4625713 201.333037,37.5860339 199.574401,35.5900438 L199.360272,35.3547503 C197.280556,33.1598824 194.559048,32.0652024 191.118535,32.0652024 Z" />
      <path d="M125.832494,17.5287444 C129.477382,17.5287444 132.972795,18.1573055 136.330232,19.4067625 C139.687668,20.6562194 142.703995,22.4039261 145.383046,24.6537151 C148.058263,26.9035041 150.288889,29.5787217 152.074922,32.6870333 C153.860956,35.7915122 155.003098,39.1681121 155.501347,42.8091676 L155.612495,43.4492269 L155.612495,77.7249735 L147.789975,77.7249735 C142.792147,77.4375218 140.293233,74.9769348 140.293233,70.3355472 L140.293233,44.844326 C140.293233,44.6296954 140.27407,44.4495589 140.239576,44.3077494 C140.205081,44.1659399 140.185918,44.0241304 140.185918,43.8784881 C139.756657,42.3070852 139.078271,40.8429977 138.15076,39.4862254 C137.223249,38.1332858 136.115601,36.9719808 134.83165,36.0061429 C133.543866,35.0441377 132.133436,34.273767 130.60036,33.7026962 C129.067284,33.1316254 127.476718,32.8480063 125.832494,32.8480063 C123.835662,32.8480063 121.942314,33.2427734 120.15628,34.0246421 C118.370247,34.8103436 116.818007,35.8643333 115.499562,37.1866114 C114.177284,38.5050568 113.123294,40.0572962 112.337592,41.8433297 C111.551891,43.6293633 111.160957,45.5227121 111.160957,47.5195436 L111.160957,70.3355472 C111.160957,74.9041137 108.623716,77.3685333 103.5569,77.7249735 L95.7343794,77.7249735 L95.7343794,47.416061 C95.7343794,43.2729231 96.5239135,39.3827428 98.0914837,35.7378546 C99.6628866,32.0967991 101.80536,28.9386625 104.518905,26.2596122 C107.232449,23.5805619 110.428913,21.4610843 114.104463,19.8858487 C117.783845,18.3144458 121.693189,17.5287444 125.832494,17.5287444 Z" />
      <path d="M85.5624201,29.0613086 L85.5624201,70.3355472 C85.5624201,73.1909012 84.884034,75.3525384 83.5272617,76.8127933 C82.1704895,78.2768809 80.4572771,79.0127574 78.368461,79.0127574 C76.279645,79.0127574 74.5817633,78.2615501 73.2786487,76.7629683 C71.9755341,75.2605538 71.3163114,73.1180801 71.3163114,70.3355472 L71.3163114,29.4905699 C71.3163114,26.6543793 71.9755341,24.5272363 73.2786487,23.1014756 C74.5817633,21.6718823 76.279645,20.9590019 78.368461,20.9590019 C80.4572771,20.9590019 82.1704895,21.6718823 83.5272617,23.1014756 C84.884034,24.5272363 85.5624201,26.5279005 85.5624201,29.0613086 Z M78.5102705,14.3169502 C76.5287698,14.3169502 74.8347208,13.7113851 73.4242909,12.4964224 C72.013861,11.2814597 71.3163114,9.55291649 71.3163114,7.32229091 C71.3163114,5.32162673 72.0291917,3.65823927 73.4779486,2.35895736 C74.9228727,1.05584276 76.6015909,0.39278739 78.5102705,0.39278739 C80.3691252,0.39278739 81.9903531,0.98302165 83.4199464,2.16349017 C84.8495398,3.35545676 85.5624201,5.07250188 85.5624201,7.32229091 C85.5624201,9.51458959 84.8648706,11.227802 83.4736041,12.4619282 C82.0823376,13.6922217 80.4381136,14.3169502 78.5102705,14.3169502 Z" />
      <path d="M15.7269756,21.4955785 C20.1537326,18.8510224 25.2243815,17.5287444 30.9350896,17.5287444 C35.1510486,17.5287444 39.0757231,18.3144458 42.7167786,19.8858487 C46.3616668,21.4610843 49.5389668,23.5997253 52.2486787,26.3132699 C54.9660559,29.0268144 57.1085296,32.2041144 58.6760998,35.8451699 C60.2475027,39.4862254 61.0332041,43.4147326 61.0332041,47.6306916 C61.0332041,51.8389853 60.2475027,55.7713252 58.6760998,59.4123807 C57.1085296,63.0534362 54.9660559,66.2307362 52.2486787,68.9442807 C49.5389668,71.6539926 46.3616668,73.7964663 42.7167786,75.3678692 C39.0757231,76.9392721 35.1510486,77.7249735 30.9350896,77.7249735 C27.010415,77.7249735 23.2773749,77.0120932 19.7436348,75.5824998 C16.2098946,74.1567391 13.101583,72.2097326 10.4263654,69.7453129 C7.74731506,67.2808933 5.57034714,64.3373873 3.89162892,60.9109625 C2.2129107,57.4807049 1.23174206,53.8051552 0.948123,49.876648 L0.84080768,47.6306916 L0.84080768,2.32063046 L8.33754932,2.32063046 C13.262556,2.32063046 15.7269756,4.81954434 15.7269756,9.82120479 L15.7269756,21.4955785 Z M30.9350896,62.302229 C33.0085749,62.302229 34.9364179,61.9266253 36.7186188,61.1792508 C38.5046523,60.4280435 40.0607245,59.3932172 41.3791698,58.0709392 C42.7014479,56.7486612 43.7362742,55.1964217 44.4836487,53.4142209 C45.234856,51.6281873 45.6104596,49.7003442 45.6104596,47.6306916 C45.6104596,45.5572064 45.234856,43.6293633 44.4836487,41.8433297 C43.7362742,40.0572962 42.7014479,38.5050568 41.3791698,37.1866114 C40.0607245,35.8643333 38.5046523,34.829507 36.7186188,34.0782998 C34.9364179,33.3270926 33.0085749,32.9553216 30.9350896,32.9553216 C28.865437,32.9553216 26.9375939,33.3270926 25.1515604,34.0782998 C23.3693595,34.829507 21.8132874,35.8643333 20.494842,37.1866114 C19.172564,38.5050568 18.1377377,40.0572962 17.3865304,41.8433297 C16.6391559,43.6293633 16.2635522,45.5572064 16.2635522,47.6306916 C16.2635522,49.7003442 16.6391559,51.6281873 17.3865304,53.4142209 C18.1377377,55.1964217 19.172564,56.7486612 20.494842,58.0709392 C21.8132874,59.3932172 23.3693595,60.4280435 25.1515604,61.1792508 C26.9375939,61.9266253 28.865437,62.302229 30.9350896,62.302229 Z" />
    </g>
  </g>
</svg>
